<?xml version="1.0" standalone="no"?>
<!DOCTYPE svg PUBLIC "-//W3C//DTD SVG 20010904//EN"
 "http://www.w3.org/TR/2001/REC-SVG-20010904/DTD/svg10.dtd">
<svg version="1.0" xmlns="http://www.w3.org/2000/svg"
 width="500.000000pt" height="500.000000pt" viewBox="0 0 500.000000 500.000000"
 preserveAspectRatio="xMidYMid meet">

<g transform="translate(0.000000,500.000000) scale(0.100000,-0.100000)"
fill="#000000" stroke="none">
<path d="M392 4985 c-165 -36 -301 -159 -368 -331 -18 -47 -19 -120 -22 -2116
-3 -2262 -5 -2143 55 -2266 32 -65 131 -168 197 -205 25 -14 69 -33 98 -44 51
-17 137 -18 2148 -18 2011 0 2097 1 2148 18 29 11 73 30 98 44 66 37 165 140
197 205 60 123 58 4 55 2266 -3 1996 -4 2069 -22 2116 -47 123 -147 238 -249
289 -119 60 -6 57 -2232 56 -1686 0 -2051 -3 -2103 -14z m1571 -1584 l537
-413 0 -155 c0 -123 -3 -153 -12 -145 -7 5 -197 152 -423 327 l-410 317 -3
-1081 -2 -1081 -125 0 -125 0 0 1330 c0 1094 2 1330 13 1323 7 -4 255 -194
550 -422z m-693 -1078 l0 -1153 -115 0 -115 0 0 1245 0 1245 115 -92 115 -92
0 -1153z m2690 67 l0 -1220 -120 0 -120 0 0 971 c0 821 -2 970 -14 966 -13 -5
-530 -404 -931 -718 -99 -78 -195 -152 -212 -166 l-32 -25 -108 83 c-60 46
-233 181 -385 302 l-278 218 0 155 0 156 38 -30 c20 -16 194 -151 385 -300
l348 -271 113 87 c62 48 335 259 607 468 272 210 539 418 594 462 55 45 103
81 108 82 4 0 7 -549 7 -1220z m-360 -375 l0 -845 -120 0 -120 0 -2 595 -3
596 -422 -325 -423 -325 0 149 0 149 516 402 c283 220 527 412 542 425 15 13
28 24 30 24 1 0 2 -380 2 -845z m-1525 273 c33 -49 62 -67 159 -100 45 -15 74
-27 65 -27 -43 -2 -153 -45 -185 -73 -43 -38 -62 -74 -85 -158 -9 -36 -19 -58
-22 -50 -3 8 -15 47 -26 86 -32 109 -100 164 -237 190 l-39 7 91 28 c128 40
165 84 205 239 l11 45 19 -75 c11 -41 30 -91 44 -112z"/>
</g>
</svg>
